<mxfile host="app.diagrams.net" modified="2022-08-16T00:53:02.287Z" agent="5.0 (Macintosh; Intel Mac OS X 10_15_7) AppleWebKit/537.36 (KHTML, like Gecko) Chrome/104.0.0.0 Safari/537.36" etag="uNaQaq6WocHOfzeI2Bpe" version="20.2.3" type="github">
  <diagram id="9fnjXT7nlAm7Ix4f8WDv" name="Page-1">
    <mxGraphModel dx="1298" dy="698" grid="0" gridSize="10" guides="1" tooltips="1" connect="1" arrows="1" fold="1" page="1" pageScale="1" pageWidth="600" pageHeight="500" background="#EFF1F3" math="0" shadow="0">
      <root>
        <mxCell id="0" />
        <mxCell id="1" parent="0" />
        <mxCell id="-xf_uFu9KCXf6jcXoVjT-1" value="&lt;font style=&quot;font-size: 23px;&quot;&gt;4位版本&lt;/font&gt;" style="rounded=1;whiteSpace=wrap;html=1;fontSize=23;fillColor=#6DB5A8;" parent="1" vertex="1">
          <mxGeometry x="70" y="50" width="120" height="60" as="geometry" />
        </mxCell>
        <mxCell id="-xf_uFu9KCXf6jcXoVjT-3" value="&lt;font style=&quot;font-size: 20px&quot;&gt;4位首部长度&lt;/font&gt;" style="rounded=1;whiteSpace=wrap;html=1;fontSize=23;fillColor=#6DB5A8;" parent="1" vertex="1">
          <mxGeometry x="190" y="50" width="120" height="60" as="geometry" />
        </mxCell>
        <mxCell id="-xf_uFu9KCXf6jcXoVjT-4" value="&lt;font style=&quot;font-size: 23px;&quot;&gt;8位服务类型&lt;/font&gt;" style="rounded=1;whiteSpace=wrap;html=1;fontSize=23;fillColor=#6DB5A8;" parent="1" vertex="1">
          <mxGeometry x="310" y="50" width="240" height="60" as="geometry" />
        </mxCell>
        <mxCell id="-xf_uFu9KCXf6jcXoVjT-5" value="&lt;font style=&quot;font-size: 23px;&quot;&gt;16位总长度&lt;/font&gt;" style="rounded=1;whiteSpace=wrap;html=1;fontSize=23;fillColor=#6DB5A8;" parent="1" vertex="1">
          <mxGeometry x="550" y="50" width="480" height="60" as="geometry" />
        </mxCell>
        <mxCell id="-xf_uFu9KCXf6jcXoVjT-6" value="&lt;font style=&quot;font-size: 23px;&quot;&gt;16位标识&lt;/font&gt;" style="rounded=1;whiteSpace=wrap;html=1;fontSize=23;fillColor=#B9E0A5;" parent="1" vertex="1">
          <mxGeometry x="70" y="110" width="480" height="60" as="geometry" />
        </mxCell>
        <mxCell id="-xf_uFu9KCXf6jcXoVjT-7" value="&lt;font style=&quot;font-size: 23px;&quot;&gt;13位片偏移&lt;/font&gt;" style="rounded=1;whiteSpace=wrap;html=1;fontSize=23;fillColor=#B9E0A5;" parent="1" vertex="1">
          <mxGeometry x="640" y="110" width="390" height="60" as="geometry" />
        </mxCell>
        <mxCell id="-xf_uFu9KCXf6jcXoVjT-8" value="x" style="rounded=1;whiteSpace=wrap;html=1;fontSize=23;fillColor=#B9E0A5;" parent="1" vertex="1">
          <mxGeometry x="550" y="110" width="30" height="60" as="geometry" />
        </mxCell>
        <mxCell id="-xf_uFu9KCXf6jcXoVjT-9" value="&lt;font style=&quot;font-size: 23px;&quot;&gt;8位生存时间（TTL）&lt;/font&gt;" style="rounded=1;whiteSpace=wrap;html=1;fontSize=23;fillColor=#6DB5A8;" parent="1" vertex="1">
          <mxGeometry x="70" y="170" width="240" height="60" as="geometry" />
        </mxCell>
        <mxCell id="-xf_uFu9KCXf6jcXoVjT-10" value="&lt;font style=&quot;font-size: 23px;&quot;&gt;8位协议&lt;/font&gt;" style="rounded=1;whiteSpace=wrap;html=1;fontSize=23;fillColor=#6DB5A8;" parent="1" vertex="1">
          <mxGeometry x="310" y="170" width="240" height="60" as="geometry" />
        </mxCell>
        <mxCell id="-xf_uFu9KCXf6jcXoVjT-11" value="&lt;font style=&quot;font-size: 23px;&quot;&gt;16位首部校验和&lt;/font&gt;" style="rounded=1;whiteSpace=wrap;html=1;fontSize=23;fillColor=#6DB5A8;" parent="1" vertex="1">
          <mxGeometry x="550" y="170" width="480" height="60" as="geometry" />
        </mxCell>
        <mxCell id="-xf_uFu9KCXf6jcXoVjT-12" value="&lt;font style=&quot;font-size: 23px;&quot;&gt;32位发送端IP地址&lt;/font&gt;" style="rounded=1;whiteSpace=wrap;html=1;fontSize=23;fillColor=#B9E0A5;" parent="1" vertex="1">
          <mxGeometry x="70" y="230" width="960" height="60" as="geometry" />
        </mxCell>
        <mxCell id="-xf_uFu9KCXf6jcXoVjT-13" value="&lt;font style=&quot;font-size: 23px;&quot;&gt;32位接收端IP地址&lt;/font&gt;" style="rounded=1;whiteSpace=wrap;html=1;fontSize=23;fillColor=#6DB5A8;" parent="1" vertex="1">
          <mxGeometry x="70" y="290" width="960" height="60" as="geometry" />
        </mxCell>
        <mxCell id="-xf_uFu9KCXf6jcXoVjT-14" value="&lt;font style=&quot;font-size: 23px;&quot;&gt;选项（如果有）&lt;/font&gt;" style="rounded=1;whiteSpace=wrap;html=1;fontSize=23;fillColor=#FFE599;" parent="1" vertex="1">
          <mxGeometry x="70" y="350" width="960" height="60" as="geometry" />
        </mxCell>
        <mxCell id="-xf_uFu9KCXf6jcXoVjT-15" value="&lt;font style=&quot;font-size: 23px;&quot;&gt;数据&lt;/font&gt;" style="rounded=1;whiteSpace=wrap;html=1;fontSize=23;fillColor=#FDD276;" parent="1" vertex="1">
          <mxGeometry x="70" y="410" width="960" height="60" as="geometry" />
        </mxCell>
        <mxCell id="-xf_uFu9KCXf6jcXoVjT-17" value="" style="shape=curlyBracket;whiteSpace=wrap;html=1;rounded=1;strokeColor=#000000;fillColor=#FDD276;gradientColor=none;fontSize=23;direction=west;strokeWidth=5;" parent="1" vertex="1">
          <mxGeometry x="1070" y="50" width="20" height="300" as="geometry" />
        </mxCell>
        <mxCell id="-xf_uFu9KCXf6jcXoVjT-18" value="&lt;font style=&quot;font-size: 30px&quot;&gt;IP&lt;br&gt;Header&lt;br&gt;20字节&lt;br&gt;&lt;/font&gt;" style="text;html=1;strokeColor=none;fillColor=none;align=center;verticalAlign=middle;whiteSpace=wrap;rounded=0;fontSize=23;" parent="1" vertex="1">
          <mxGeometry x="1099" y="220" width="91" height="20" as="geometry" />
        </mxCell>
        <mxCell id="fNshn0QDhJRIsS99x6wb-1" value="&lt;font style=&quot;font-size: 20px&quot;&gt;DF&lt;/font&gt;" style="rounded=1;whiteSpace=wrap;html=1;fontSize=23;fillColor=#B9E0A5;" parent="1" vertex="1">
          <mxGeometry x="580" y="110" width="30" height="60" as="geometry" />
        </mxCell>
        <mxCell id="fNshn0QDhJRIsS99x6wb-2" value="&lt;font style=&quot;font-size: 20px&quot;&gt;MF&lt;/font&gt;" style="rounded=1;whiteSpace=wrap;html=1;fontSize=23;fillColor=#B9E0A5;" parent="1" vertex="1">
          <mxGeometry x="610" y="110" width="30" height="60" as="geometry" />
        </mxCell>
      </root>
    </mxGraphModel>
  </diagram>
</mxfile>
